# xmcd
#
# Track frame offsets:
#	150
#	30269
#	57573
#	90041
#	109999
#	131722
#	157011
#	177544
#	191000
#	208116
#	228151
#	249170
#	269393
#	285509
#	297035
#	320160
#	333208
#
# Disc length: 4640
#
# Revision: 1
# Processed by: cddbd v1.5.1PL0 Copyright (c) Steve Scherf et al.
# Submitted via: CDex 1.50
# Normalized: r0:TRMNUM
#
DISCID=f3121e11
DTITLE=Leonard Cohen - collection
DYEAR=1900
DGENRE=Blues
TTITLE0=The Future
TTITLE1=Anthem
TTITLE2=Democracy
TTITLE3=I`m Your Man
TTITLE4=Ain`t No Cure For Love
TTITLE5=Tower Of Song
TTITLE6=Hallelujah
TTITLE7=There Is A War
TTITLE8=Susanne
TTITLE9=The Law
TTITLE10=Heart With No Companion
TTITLE11=I Can`t Forget
TTITLE12=Sisters Of Mercy
TTITLE13=Who By Fire
TTITLE14=Famous Blue Raincoat
TTITLE15=Lady Midnight
TTITLE16=Lover Lover Lover
EXTD=
EXTT0=
EXTT1=
EXTT2=
EXTT3=
EXTT4=
EXTT5=
EXTT6=
EXTT7=
EXTT8=
EXTT9=
EXTT10=
EXTT11=
EXTT12=
EXTT13=
EXTT14=
EXTT15=
EXTT16=
PLAYORDER=
